<mxfile host="Electron" modified="2024-08-28T13:31:17.877Z" agent="Mozilla/5.0 (Windows NT 10.0; Win64; x64) AppleWebKit/537.36 (KHTML, like Gecko) draw.io/23.0.2 Chrome/120.0.6099.109 Electron/28.1.0 Safari/537.36" etag="yoqWDUDuLtz5f8mFUrIY" version="23.0.2" type="device" pages="4">
  <diagram name="Página-1" id="jaoDpyFKK26bWcoBuoCk">
    <mxGraphModel dx="1251" dy="2033" grid="1" gridSize="10" guides="1" tooltips="1" connect="1" arrows="1" fold="1" page="1" pageScale="1" pageWidth="827" pageHeight="1169" math="0" shadow="0">
      <root>
        <mxCell id="0" />
        <mxCell id="1" parent="0" />
        <mxCell id="io_ixwlxPu3ot2Wv1C0l-1" value="paciente" style="whiteSpace=wrap;html=1;align=center;" vertex="1" parent="1">
          <mxGeometry x="340" y="-110" width="100" height="40" as="geometry" />
        </mxCell>
        <mxCell id="io_ixwlxPu3ot2Wv1C0l-2" value="doutor" style="whiteSpace=wrap;html=1;align=center;" vertex="1" parent="1">
          <mxGeometry x="340" y="500" width="100" height="40" as="geometry" />
        </mxCell>
        <mxCell id="io_ixwlxPu3ot2Wv1C0l-3" value="consulta" style="whiteSpace=wrap;html=1;align=center;" vertex="1" parent="1">
          <mxGeometry x="340" y="210" width="100" height="40" as="geometry" />
        </mxCell>
        <mxCell id="io_ixwlxPu3ot2Wv1C0l-51" style="rounded=0;orthogonalLoop=1;jettySize=auto;html=1;exitX=1;exitY=0;exitDx=0;exitDy=0;entryX=0;entryY=1;entryDx=0;entryDy=0;" edge="1" parent="1" source="io_ixwlxPu3ot2Wv1C0l-4" target="io_ixwlxPu3ot2Wv1C0l-3">
          <mxGeometry relative="1" as="geometry" />
        </mxCell>
        <mxCell id="io_ixwlxPu3ot2Wv1C0l-4" value="nome paciente" style="ellipse;whiteSpace=wrap;html=1;align=center;" vertex="1" parent="1">
          <mxGeometry x="180" y="260" width="100" height="40" as="geometry" />
        </mxCell>
        <mxCell id="io_ixwlxPu3ot2Wv1C0l-52" style="rounded=0;orthogonalLoop=1;jettySize=auto;html=1;exitX=1;exitY=1;exitDx=0;exitDy=0;entryX=0;entryY=0.5;entryDx=0;entryDy=0;" edge="1" parent="1" source="io_ixwlxPu3ot2Wv1C0l-5" target="io_ixwlxPu3ot2Wv1C0l-3">
          <mxGeometry relative="1" as="geometry" />
        </mxCell>
        <mxCell id="io_ixwlxPu3ot2Wv1C0l-5" value="Data" style="ellipse;whiteSpace=wrap;html=1;align=center;fontStyle=4;" vertex="1" parent="1">
          <mxGeometry x="180" y="180" width="100" height="40" as="geometry" />
        </mxCell>
        <mxCell id="io_ixwlxPu3ot2Wv1C0l-63" style="rounded=0;orthogonalLoop=1;jettySize=auto;html=1;exitX=0;exitY=0;exitDx=0;exitDy=0;entryX=1;entryY=1;entryDx=0;entryDy=0;" edge="1" parent="1" source="io_ixwlxPu3ot2Wv1C0l-6" target="io_ixwlxPu3ot2Wv1C0l-3">
          <mxGeometry relative="1" as="geometry" />
        </mxCell>
        <mxCell id="io_ixwlxPu3ot2Wv1C0l-6" value="nome medico&amp;nbsp;" style="ellipse;whiteSpace=wrap;html=1;align=center;" vertex="1" parent="1">
          <mxGeometry x="480" y="270" width="100" height="40" as="geometry" />
        </mxCell>
        <mxCell id="io_ixwlxPu3ot2Wv1C0l-54" style="rounded=0;orthogonalLoop=1;jettySize=auto;html=1;exitX=0;exitY=1;exitDx=0;exitDy=0;entryX=1;entryY=0.25;entryDx=0;entryDy=0;" edge="1" parent="1" source="io_ixwlxPu3ot2Wv1C0l-7" target="io_ixwlxPu3ot2Wv1C0l-3">
          <mxGeometry relative="1" as="geometry" />
        </mxCell>
        <mxCell id="io_ixwlxPu3ot2Wv1C0l-7" value="Historico" style="ellipse;whiteSpace=wrap;html=1;align=center;" vertex="1" parent="1">
          <mxGeometry x="490" y="130" width="100" height="40" as="geometry" />
        </mxCell>
        <mxCell id="io_ixwlxPu3ot2Wv1C0l-28" style="rounded=0;orthogonalLoop=1;jettySize=auto;html=1;exitX=0;exitY=1;exitDx=0;exitDy=0;entryX=0.75;entryY=0;entryDx=0;entryDy=0;" edge="1" parent="1" source="io_ixwlxPu3ot2Wv1C0l-8" target="io_ixwlxPu3ot2Wv1C0l-1">
          <mxGeometry relative="1" as="geometry" />
        </mxCell>
        <mxCell id="io_ixwlxPu3ot2Wv1C0l-8" value="ID" style="ellipse;whiteSpace=wrap;html=1;align=center;" vertex="1" parent="1">
          <mxGeometry x="470" y="-190" width="100" height="40" as="geometry" />
        </mxCell>
        <mxCell id="io_ixwlxPu3ot2Wv1C0l-29" style="rounded=0;orthogonalLoop=1;jettySize=auto;html=1;exitX=0;exitY=1;exitDx=0;exitDy=0;entryX=1;entryY=0.75;entryDx=0;entryDy=0;" edge="1" parent="1" source="io_ixwlxPu3ot2Wv1C0l-9" target="io_ixwlxPu3ot2Wv1C0l-1">
          <mxGeometry relative="1" as="geometry" />
        </mxCell>
        <mxCell id="io_ixwlxPu3ot2Wv1C0l-9" value="Nome" style="ellipse;whiteSpace=wrap;html=1;align=center;" vertex="1" parent="1">
          <mxGeometry x="500" y="-100" width="100" height="40" as="geometry" />
        </mxCell>
        <mxCell id="io_ixwlxPu3ot2Wv1C0l-26" style="rounded=0;orthogonalLoop=1;jettySize=auto;html=1;exitX=1;exitY=0.5;exitDx=0;exitDy=0;entryX=0;entryY=0.5;entryDx=0;entryDy=0;" edge="1" parent="1" source="io_ixwlxPu3ot2Wv1C0l-10" target="io_ixwlxPu3ot2Wv1C0l-1">
          <mxGeometry relative="1" as="geometry" />
        </mxCell>
        <mxCell id="io_ixwlxPu3ot2Wv1C0l-10" value="data nascimento" style="ellipse;whiteSpace=wrap;html=1;align=center;" vertex="1" parent="1">
          <mxGeometry x="170" y="-190" width="100" height="40" as="geometry" />
        </mxCell>
        <mxCell id="io_ixwlxPu3ot2Wv1C0l-27" style="rounded=0;orthogonalLoop=1;jettySize=auto;html=1;exitX=0.5;exitY=1;exitDx=0;exitDy=0;entryX=0.25;entryY=0;entryDx=0;entryDy=0;" edge="1" parent="1" source="io_ixwlxPu3ot2Wv1C0l-11" target="io_ixwlxPu3ot2Wv1C0l-1">
          <mxGeometry relative="1" as="geometry" />
        </mxCell>
        <mxCell id="io_ixwlxPu3ot2Wv1C0l-11" value="telefone&amp;nbsp;" style="ellipse;whiteSpace=wrap;html=1;align=center;" vertex="1" parent="1">
          <mxGeometry x="290" y="-250" width="100" height="40" as="geometry" />
        </mxCell>
        <mxCell id="io_ixwlxPu3ot2Wv1C0l-25" style="rounded=0;orthogonalLoop=1;jettySize=auto;html=1;exitX=1;exitY=1;exitDx=0;exitDy=0;entryX=0;entryY=1;entryDx=0;entryDy=0;" edge="1" parent="1" source="io_ixwlxPu3ot2Wv1C0l-12" target="io_ixwlxPu3ot2Wv1C0l-1">
          <mxGeometry relative="1" as="geometry" />
        </mxCell>
        <mxCell id="io_ixwlxPu3ot2Wv1C0l-12" value="endereço" style="ellipse;whiteSpace=wrap;html=1;align=center;" vertex="1" parent="1">
          <mxGeometry x="170" y="-100" width="100" height="40" as="geometry" />
        </mxCell>
        <mxCell id="io_ixwlxPu3ot2Wv1C0l-59" style="rounded=0;orthogonalLoop=1;jettySize=auto;html=1;exitX=0;exitY=0.5;exitDx=0;exitDy=0;entryX=1;entryY=0.75;entryDx=0;entryDy=0;" edge="1" parent="1" source="io_ixwlxPu3ot2Wv1C0l-15" target="io_ixwlxPu3ot2Wv1C0l-2">
          <mxGeometry relative="1" as="geometry" />
        </mxCell>
        <mxCell id="io_ixwlxPu3ot2Wv1C0l-15" value="ID" style="ellipse;whiteSpace=wrap;html=1;align=center;" vertex="1" parent="1">
          <mxGeometry x="500" y="510" width="100" height="40" as="geometry" />
        </mxCell>
        <mxCell id="io_ixwlxPu3ot2Wv1C0l-16" value="Nome" style="ellipse;whiteSpace=wrap;html=1;align=center;" vertex="1" parent="1">
          <mxGeometry x="430" y="610" width="100" height="40" as="geometry" />
        </mxCell>
        <mxCell id="io_ixwlxPu3ot2Wv1C0l-57" style="rounded=0;orthogonalLoop=1;jettySize=auto;html=1;exitX=1;exitY=0;exitDx=0;exitDy=0;entryX=0.25;entryY=1;entryDx=0;entryDy=0;" edge="1" parent="1" source="io_ixwlxPu3ot2Wv1C0l-17" target="io_ixwlxPu3ot2Wv1C0l-2">
          <mxGeometry relative="1" as="geometry" />
        </mxCell>
        <mxCell id="io_ixwlxPu3ot2Wv1C0l-17" value="especialidade" style="ellipse;whiteSpace=wrap;html=1;align=center;" vertex="1" parent="1">
          <mxGeometry x="240" y="610" width="100" height="40" as="geometry" />
        </mxCell>
        <mxCell id="io_ixwlxPu3ot2Wv1C0l-56" style="rounded=0;orthogonalLoop=1;jettySize=auto;html=1;exitX=1;exitY=0.5;exitDx=0;exitDy=0;entryX=0;entryY=0.75;entryDx=0;entryDy=0;" edge="1" parent="1" source="io_ixwlxPu3ot2Wv1C0l-18" target="io_ixwlxPu3ot2Wv1C0l-2">
          <mxGeometry relative="1" as="geometry" />
        </mxCell>
        <mxCell id="io_ixwlxPu3ot2Wv1C0l-18" value="telefone" style="ellipse;whiteSpace=wrap;html=1;align=center;" vertex="1" parent="1">
          <mxGeometry x="190" y="510" width="100" height="40" as="geometry" />
        </mxCell>
        <mxCell id="io_ixwlxPu3ot2Wv1C0l-20" style="edgeStyle=orthogonalEdgeStyle;rounded=0;orthogonalLoop=1;jettySize=auto;html=1;entryX=0.5;entryY=1;entryDx=0;entryDy=0;" edge="1" parent="1" source="io_ixwlxPu3ot2Wv1C0l-19" target="io_ixwlxPu3ot2Wv1C0l-3">
          <mxGeometry relative="1" as="geometry" />
        </mxCell>
        <mxCell id="io_ixwlxPu3ot2Wv1C0l-21" style="edgeStyle=orthogonalEdgeStyle;rounded=0;orthogonalLoop=1;jettySize=auto;html=1;exitX=0.5;exitY=1;exitDx=0;exitDy=0;" edge="1" parent="1" source="io_ixwlxPu3ot2Wv1C0l-19" target="io_ixwlxPu3ot2Wv1C0l-2">
          <mxGeometry relative="1" as="geometry" />
        </mxCell>
        <mxCell id="io_ixwlxPu3ot2Wv1C0l-19" value="" style="shape=rhombus;perimeter=rhombusPerimeter;whiteSpace=wrap;html=1;align=center;" vertex="1" parent="1">
          <mxGeometry x="330" y="360" width="120" height="60" as="geometry" />
        </mxCell>
        <mxCell id="io_ixwlxPu3ot2Wv1C0l-23" style="edgeStyle=orthogonalEdgeStyle;rounded=0;orthogonalLoop=1;jettySize=auto;html=1;entryX=0.5;entryY=0;entryDx=0;entryDy=0;" edge="1" parent="1" source="io_ixwlxPu3ot2Wv1C0l-22" target="io_ixwlxPu3ot2Wv1C0l-3">
          <mxGeometry relative="1" as="geometry" />
        </mxCell>
        <mxCell id="io_ixwlxPu3ot2Wv1C0l-24" style="edgeStyle=orthogonalEdgeStyle;rounded=0;orthogonalLoop=1;jettySize=auto;html=1;entryX=0.5;entryY=1;entryDx=0;entryDy=0;" edge="1" parent="1" source="io_ixwlxPu3ot2Wv1C0l-22" target="io_ixwlxPu3ot2Wv1C0l-1">
          <mxGeometry relative="1" as="geometry" />
        </mxCell>
        <mxCell id="io_ixwlxPu3ot2Wv1C0l-22" value="" style="shape=rhombus;perimeter=rhombusPerimeter;whiteSpace=wrap;html=1;align=center;" vertex="1" parent="1">
          <mxGeometry x="330" y="60" width="120" height="60" as="geometry" />
        </mxCell>
        <mxCell id="io_ixwlxPu3ot2Wv1C0l-32" value="1,1" style="text;html=1;strokeColor=none;fillColor=none;align=center;verticalAlign=middle;whiteSpace=wrap;rounded=0;" vertex="1" parent="1">
          <mxGeometry x="390" y="-70" width="60" height="30" as="geometry" />
        </mxCell>
        <mxCell id="io_ixwlxPu3ot2Wv1C0l-33" value="0,N" style="text;html=1;strokeColor=none;fillColor=none;align=center;verticalAlign=middle;whiteSpace=wrap;rounded=0;" vertex="1" parent="1">
          <mxGeometry x="390" y="180" width="60" height="30" as="geometry" />
        </mxCell>
        <mxCell id="io_ixwlxPu3ot2Wv1C0l-35" value="status" style="ellipse;whiteSpace=wrap;html=1;align=center;" vertex="1" parent="1">
          <mxGeometry x="250" y="120" width="100" height="40" as="geometry" />
        </mxCell>
        <mxCell id="io_ixwlxPu3ot2Wv1C0l-36" value="0,N" style="text;html=1;strokeColor=none;fillColor=none;align=center;verticalAlign=middle;whiteSpace=wrap;rounded=0;" vertex="1" parent="1">
          <mxGeometry x="390" y="265" width="60" height="30" as="geometry" />
        </mxCell>
        <mxCell id="io_ixwlxPu3ot2Wv1C0l-37" value="1,1" style="text;html=1;strokeColor=none;fillColor=none;align=center;verticalAlign=middle;whiteSpace=wrap;rounded=0;" vertex="1" parent="1">
          <mxGeometry x="380" y="470" width="60" height="30" as="geometry" />
        </mxCell>
        <mxCell id="io_ixwlxPu3ot2Wv1C0l-53" style="rounded=0;orthogonalLoop=1;jettySize=auto;html=1;exitX=1;exitY=1;exitDx=0;exitDy=0;entryX=0.08;entryY=-0.025;entryDx=0;entryDy=0;entryPerimeter=0;" edge="1" parent="1" source="io_ixwlxPu3ot2Wv1C0l-35" target="io_ixwlxPu3ot2Wv1C0l-3">
          <mxGeometry relative="1" as="geometry" />
        </mxCell>
        <mxCell id="io_ixwlxPu3ot2Wv1C0l-58" style="rounded=0;orthogonalLoop=1;jettySize=auto;html=1;exitX=0;exitY=0;exitDx=0;exitDy=0;entryX=0.67;entryY=1.05;entryDx=0;entryDy=0;entryPerimeter=0;" edge="1" parent="1" source="io_ixwlxPu3ot2Wv1C0l-16" target="io_ixwlxPu3ot2Wv1C0l-2">
          <mxGeometry relative="1" as="geometry" />
        </mxCell>
        <mxCell id="io_ixwlxPu3ot2Wv1C0l-67" style="edgeStyle=orthogonalEdgeStyle;rounded=0;orthogonalLoop=1;jettySize=auto;html=1;exitX=0;exitY=0.5;exitDx=0;exitDy=0;entryX=1;entryY=0.5;entryDx=0;entryDy=0;" edge="1" parent="1" source="io_ixwlxPu3ot2Wv1C0l-64" target="io_ixwlxPu3ot2Wv1C0l-19">
          <mxGeometry relative="1" as="geometry" />
        </mxCell>
        <mxCell id="io_ixwlxPu3ot2Wv1C0l-64" value="diagnostico" style="ellipse;whiteSpace=wrap;html=1;align=center;" vertex="1" parent="1">
          <mxGeometry x="500" y="370" width="100" height="40" as="geometry" />
        </mxCell>
        <mxCell id="io_ixwlxPu3ot2Wv1C0l-66" style="edgeStyle=orthogonalEdgeStyle;rounded=0;orthogonalLoop=1;jettySize=auto;html=1;exitX=1;exitY=0.5;exitDx=0;exitDy=0;entryX=0;entryY=0.5;entryDx=0;entryDy=0;" edge="1" parent="1" source="io_ixwlxPu3ot2Wv1C0l-65" target="io_ixwlxPu3ot2Wv1C0l-19">
          <mxGeometry relative="1" as="geometry" />
        </mxCell>
        <mxCell id="io_ixwlxPu3ot2Wv1C0l-65" value="tratamento" style="ellipse;whiteSpace=wrap;html=1;align=center;" vertex="1" parent="1">
          <mxGeometry x="160" y="370" width="100" height="40" as="geometry" />
        </mxCell>
        <mxCell id="io_ixwlxPu3ot2Wv1C0l-68" value="Text" style="text;html=1;strokeColor=none;fillColor=none;align=center;verticalAlign=middle;whiteSpace=wrap;rounded=0;" vertex="1" parent="1">
          <mxGeometry x="510" y="550" width="60" height="30" as="geometry" />
        </mxCell>
        <mxCell id="io_ixwlxPu3ot2Wv1C0l-69" value="&lt;div style=&quot;&quot;&gt;&lt;span style=&quot;font-size: 16px; background-color: initial;&quot;&gt;Paciente ( *CodigoPaciente,nomePaciente,telefonePaciente,Status&lt;/span&gt;&lt;span style=&quot;background-color: initial; font-size: 16px;&quot;&gt;Consulta, ).&lt;/span&gt;&lt;/div&gt;&lt;font style=&quot;font-size: 16px;&quot;&gt;&lt;div style=&quot;&quot;&gt;&lt;span style=&quot;background-color: initial;&quot;&gt;Consulta (*CodigoConsulta, dataConsulta,statusConsulta,CodigoPaciente,CodigoDoutor,diagnostico,tratamento)&lt;/span&gt;&lt;/div&gt;&lt;div style=&quot;&quot;&gt;&lt;span style=&quot;background-color: initial;&quot;&gt;CodigoPaciente referencia Paciente&lt;/span&gt;&lt;/div&gt;&lt;div style=&quot;&quot;&gt;&lt;span style=&quot;background-color: initial;&quot;&gt;CodigoDoutor referencia Doutor&lt;/span&gt;&lt;/div&gt;&lt;div style=&quot;&quot;&gt;&lt;span style=&quot;background-color: initial;&quot;&gt;Doutor(*CodigoDoutor,especialidadeDoutor,NomeDoutor)&lt;/span&gt;&lt;/div&gt;&lt;/font&gt;" style="text;html=1;strokeColor=none;fillColor=none;align=left;verticalAlign=middle;whiteSpace=wrap;rounded=0;" vertex="1" parent="1">
          <mxGeometry x="75" y="690" width="675" height="180" as="geometry" />
        </mxCell>
      </root>
    </mxGraphModel>
  </diagram>
  <diagram id="c8dc9gPWGK9QqCdIBJVe" name="Página-2">
    <mxGraphModel dx="1104" dy="762" grid="1" gridSize="10" guides="1" tooltips="1" connect="1" arrows="1" fold="1" page="1" pageScale="1" pageWidth="827" pageHeight="1169" math="0" shadow="0">
      <root>
        <mxCell id="0" />
        <mxCell id="1" parent="0" />
        <mxCell id="WEFmtamtGQ1HG8QBXdX0-1" value="ingresso" style="rounded=1;arcSize=10;whiteSpace=wrap;html=1;align=center;" vertex="1" parent="1">
          <mxGeometry x="180" y="160" width="100" height="40" as="geometry" />
        </mxCell>
        <mxCell id="WEFmtamtGQ1HG8QBXdX0-25" style="edgeStyle=orthogonalEdgeStyle;rounded=0;orthogonalLoop=1;jettySize=auto;html=1;exitX=0;exitY=0.5;exitDx=0;exitDy=0;entryX=1;entryY=0.5;entryDx=0;entryDy=0;" edge="1" parent="1" source="WEFmtamtGQ1HG8QBXdX0-2" target="WEFmtamtGQ1HG8QBXdX0-11">
          <mxGeometry relative="1" as="geometry" />
        </mxCell>
        <mxCell id="WEFmtamtGQ1HG8QBXdX0-2" value="cliente" style="rounded=1;arcSize=10;whiteSpace=wrap;html=1;align=center;" vertex="1" parent="1">
          <mxGeometry x="520" y="170" width="100" height="40" as="geometry" />
        </mxCell>
        <mxCell id="WEFmtamtGQ1HG8QBXdX0-3" value="show" style="rounded=1;arcSize=10;whiteSpace=wrap;html=1;align=center;" vertex="1" parent="1">
          <mxGeometry x="170" y="390" width="100" height="40" as="geometry" />
        </mxCell>
        <mxCell id="WEFmtamtGQ1HG8QBXdX0-23" style="edgeStyle=orthogonalEdgeStyle;rounded=0;orthogonalLoop=1;jettySize=auto;html=1;exitX=0.5;exitY=0;exitDx=0;exitDy=0;entryX=0.5;entryY=1;entryDx=0;entryDy=0;" edge="1" parent="1" source="WEFmtamtGQ1HG8QBXdX0-4" target="WEFmtamtGQ1HG8QBXdX0-1">
          <mxGeometry relative="1" as="geometry" />
        </mxCell>
        <mxCell id="WEFmtamtGQ1HG8QBXdX0-24" style="edgeStyle=orthogonalEdgeStyle;rounded=0;orthogonalLoop=1;jettySize=auto;html=1;exitX=0.5;exitY=1;exitDx=0;exitDy=0;entryX=0.5;entryY=0;entryDx=0;entryDy=0;" edge="1" parent="1" source="WEFmtamtGQ1HG8QBXdX0-4" target="WEFmtamtGQ1HG8QBXdX0-3">
          <mxGeometry relative="1" as="geometry" />
        </mxCell>
        <mxCell id="WEFmtamtGQ1HG8QBXdX0-4" value="" style="shape=rhombus;perimeter=rhombusPerimeter;whiteSpace=wrap;html=1;align=center;" vertex="1" parent="1">
          <mxGeometry x="160" y="270" width="120" height="60" as="geometry" />
        </mxCell>
        <mxCell id="WEFmtamtGQ1HG8QBXdX0-7" value="Data" style="ellipse;whiteSpace=wrap;html=1;align=center;fontStyle=4;" vertex="1" parent="1">
          <mxGeometry x="90" y="490" width="100" height="40" as="geometry" />
        </mxCell>
        <mxCell id="WEFmtamtGQ1HG8QBXdX0-8" value="local" style="ellipse;whiteSpace=wrap;html=1;align=center;fontStyle=4;" vertex="1" parent="1">
          <mxGeometry x="230" y="500" width="100" height="40" as="geometry" />
        </mxCell>
        <mxCell id="WEFmtamtGQ1HG8QBXdX0-10" value="Artista" style="ellipse;whiteSpace=wrap;html=1;align=center;fontStyle=4;" vertex="1" parent="1">
          <mxGeometry x="40" y="410" width="100" height="40" as="geometry" />
        </mxCell>
        <mxCell id="WEFmtamtGQ1HG8QBXdX0-26" style="edgeStyle=orthogonalEdgeStyle;rounded=0;orthogonalLoop=1;jettySize=auto;html=1;entryX=1;entryY=0.5;entryDx=0;entryDy=0;" edge="1" parent="1" source="WEFmtamtGQ1HG8QBXdX0-11" target="WEFmtamtGQ1HG8QBXdX0-1">
          <mxGeometry relative="1" as="geometry" />
        </mxCell>
        <mxCell id="WEFmtamtGQ1HG8QBXdX0-11" value="Pagamento" style="shape=rhombus;perimeter=rhombusPerimeter;whiteSpace=wrap;html=1;align=center;" vertex="1" parent="1">
          <mxGeometry x="340" y="160" width="120" height="60" as="geometry" />
        </mxCell>
        <mxCell id="WEFmtamtGQ1HG8QBXdX0-12" value="valores" style="ellipse;whiteSpace=wrap;html=1;align=center;fontStyle=4;" vertex="1" parent="1">
          <mxGeometry y="100" width="100" height="40" as="geometry" />
        </mxCell>
        <mxCell id="WEFmtamtGQ1HG8QBXdX0-13" value="Attribute" style="ellipse;whiteSpace=wrap;html=1;align=center;fontStyle=4;" vertex="1" parent="1">
          <mxGeometry y="170" width="100" height="40" as="geometry" />
        </mxCell>
        <mxCell id="WEFmtamtGQ1HG8QBXdX0-14" value="Tipos de ingresso" style="ellipse;whiteSpace=wrap;html=1;align=center;fontStyle=4;" vertex="1" parent="1">
          <mxGeometry x="130" y="60" width="100" height="40" as="geometry" />
        </mxCell>
        <mxCell id="WEFmtamtGQ1HG8QBXdX0-15" value="ID" style="ellipse;whiteSpace=wrap;html=1;align=center;fontStyle=4;" vertex="1" parent="1">
          <mxGeometry x="260" y="60" width="100" height="40" as="geometry" />
        </mxCell>
        <mxCell id="WEFmtamtGQ1HG8QBXdX0-17" value="Attribute" style="ellipse;whiteSpace=wrap;html=1;align=center;fontStyle=4;" vertex="1" parent="1">
          <mxGeometry x="30" y="230" width="100" height="40" as="geometry" />
        </mxCell>
        <mxCell id="WEFmtamtGQ1HG8QBXdX0-18" value="Horario" style="ellipse;whiteSpace=wrap;html=1;align=center;fontStyle=4;" vertex="1" parent="1">
          <mxGeometry x="320" y="400" width="100" height="40" as="geometry" />
        </mxCell>
        <mxCell id="WEFmtamtGQ1HG8QBXdX0-20" value="cpf" style="ellipse;whiteSpace=wrap;html=1;align=center;fontStyle=4;" vertex="1" parent="1">
          <mxGeometry x="510" y="70" width="100" height="40" as="geometry" />
        </mxCell>
        <mxCell id="WEFmtamtGQ1HG8QBXdX0-21" value="Nome" style="ellipse;whiteSpace=wrap;html=1;align=center;fontStyle=4;" vertex="1" parent="1">
          <mxGeometry x="650" y="120" width="100" height="40" as="geometry" />
        </mxCell>
        <mxCell id="WEFmtamtGQ1HG8QBXdX0-22" value="idade" style="ellipse;whiteSpace=wrap;html=1;align=center;fontStyle=4;" vertex="1" parent="1">
          <mxGeometry x="510" y="250" width="100" height="40" as="geometry" />
        </mxCell>
        <mxCell id="WEFmtamtGQ1HG8QBXdX0-27" value="endereço" style="ellipse;whiteSpace=wrap;html=1;align=center;fontStyle=4;" vertex="1" parent="1">
          <mxGeometry x="650" y="210" width="100" height="40" as="geometry" />
        </mxCell>
        <mxCell id="YVUtAfhHFPFHMRwhi73J-1" value="Um aplicativo precisa de um sistema&amp;nbsp; para poder gestionar as vendas dos seus ingerssos, no qual&amp;nbsp;" style="text;html=1;strokeColor=none;fillColor=none;align=center;verticalAlign=middle;whiteSpace=wrap;rounded=0;" vertex="1" parent="1">
          <mxGeometry x="180" y="730" width="520" height="250" as="geometry" />
        </mxCell>
      </root>
    </mxGraphModel>
  </diagram>
  <diagram id="ghsjX5mO5j-M7IykG1wl" name="Página-3">
    <mxGraphModel dx="938" dy="648" grid="1" gridSize="10" guides="1" tooltips="1" connect="1" arrows="1" fold="1" page="1" pageScale="1" pageWidth="827" pageHeight="1169" math="0" shadow="0">
      <root>
        <mxCell id="0" />
        <mxCell id="1" parent="0" />
        <mxCell id="LDfPsv8GSpQ3Y3huAxtO-2" value="Estoque" style="whiteSpace=wrap;html=1;align=center;" vertex="1" parent="1">
          <mxGeometry x="160" y="130" width="100" height="40" as="geometry" />
        </mxCell>
        <mxCell id="LDfPsv8GSpQ3Y3huAxtO-3" value="alunos" style="whiteSpace=wrap;html=1;align=center;" vertex="1" parent="1">
          <mxGeometry x="480" y="130" width="100" height="40" as="geometry" />
        </mxCell>
        <mxCell id="LDfPsv8GSpQ3Y3huAxtO-4" value="setores" style="whiteSpace=wrap;html=1;align=center;" vertex="1" parent="1">
          <mxGeometry x="160" y="280" width="100" height="40" as="geometry" />
        </mxCell>
        <mxCell id="LDfPsv8GSpQ3Y3huAxtO-5" value="Attribute" style="ellipse;whiteSpace=wrap;html=1;align=center;" vertex="1" parent="1">
          <mxGeometry x="80" y="70" width="100" height="40" as="geometry" />
        </mxCell>
      </root>
    </mxGraphModel>
  </diagram>
  <diagram id="64cyT-gFuVRWHqz4rYH8" name="Página-4">
    <mxGraphModel dx="938" dy="648" grid="1" gridSize="10" guides="1" tooltips="1" connect="1" arrows="1" fold="1" page="1" pageScale="1" pageWidth="827" pageHeight="1169" math="0" shadow="0">
      <root>
        <mxCell id="0" />
        <mxCell id="1" parent="0" />
        <mxCell id="zmnEAHHyUiQVyY_5Mi11-1" value="vagas" style="rounded=1;arcSize=10;whiteSpace=wrap;html=1;align=center;" vertex="1" parent="1">
          <mxGeometry x="230" y="270" width="100" height="40" as="geometry" />
        </mxCell>
        <mxCell id="zmnEAHHyUiQVyY_5Mi11-9" style="edgeStyle=orthogonalEdgeStyle;rounded=0;orthogonalLoop=1;jettySize=auto;html=1;" edge="1" parent="1" source="zmnEAHHyUiQVyY_5Mi11-2">
          <mxGeometry relative="1" as="geometry">
            <mxPoint x="280" y="120" as="targetPoint" />
          </mxGeometry>
        </mxCell>
        <mxCell id="zmnEAHHyUiQVyY_5Mi11-2" value="carro" style="rounded=1;arcSize=10;whiteSpace=wrap;html=1;align=center;" vertex="1" parent="1">
          <mxGeometry x="90" y="50" width="100" height="40" as="geometry" />
        </mxCell>
        <mxCell id="zmnEAHHyUiQVyY_5Mi11-3" value="cliente" style="rounded=1;arcSize=10;whiteSpace=wrap;html=1;align=center;" vertex="1" parent="1">
          <mxGeometry x="230" y="420" width="100" height="40" as="geometry" />
        </mxCell>
        <mxCell id="zmnEAHHyUiQVyY_5Mi11-8" style="edgeStyle=orthogonalEdgeStyle;rounded=0;orthogonalLoop=1;jettySize=auto;html=1;" edge="1" parent="1" source="zmnEAHHyUiQVyY_5Mi11-4" target="zmnEAHHyUiQVyY_5Mi11-7">
          <mxGeometry relative="1" as="geometry" />
        </mxCell>
        <mxCell id="zmnEAHHyUiQVyY_5Mi11-4" value="moto" style="rounded=1;arcSize=10;whiteSpace=wrap;html=1;align=center;" vertex="1" parent="1">
          <mxGeometry x="400" y="50" width="100" height="40" as="geometry" />
        </mxCell>
        <mxCell id="zmnEAHHyUiQVyY_5Mi11-7" value="ocupação" style="shape=rhombus;perimeter=rhombusPerimeter;whiteSpace=wrap;html=1;align=center;" vertex="1" parent="1">
          <mxGeometry x="220" y="130" width="120" height="60" as="geometry" />
        </mxCell>
        <mxCell id="zmnEAHHyUiQVyY_5Mi11-13" style="edgeStyle=orthogonalEdgeStyle;rounded=0;orthogonalLoop=1;jettySize=auto;html=1;entryX=0.5;entryY=0;entryDx=0;entryDy=0;" edge="1" parent="1" source="zmnEAHHyUiQVyY_5Mi11-10" target="zmnEAHHyUiQVyY_5Mi11-12">
          <mxGeometry relative="1" as="geometry" />
        </mxCell>
        <mxCell id="zmnEAHHyUiQVyY_5Mi11-10" value="vagas" style="rounded=1;arcSize=10;whiteSpace=wrap;html=1;align=center;" vertex="1" parent="1">
          <mxGeometry x="660" y="240" width="100" height="40" as="geometry" />
        </mxCell>
        <mxCell id="zmnEAHHyUiQVyY_5Mi11-11" value="cliente" style="rounded=1;arcSize=10;whiteSpace=wrap;html=1;align=center;" vertex="1" parent="1">
          <mxGeometry x="660" y="480" width="100" height="40" as="geometry" />
        </mxCell>
        <mxCell id="zmnEAHHyUiQVyY_5Mi11-14" style="edgeStyle=orthogonalEdgeStyle;rounded=0;orthogonalLoop=1;jettySize=auto;html=1;entryX=0.5;entryY=0;entryDx=0;entryDy=0;" edge="1" parent="1" source="zmnEAHHyUiQVyY_5Mi11-12" target="zmnEAHHyUiQVyY_5Mi11-11">
          <mxGeometry relative="1" as="geometry" />
        </mxCell>
        <mxCell id="zmnEAHHyUiQVyY_5Mi11-12" value="ocupação" style="shape=rhombus;perimeter=rhombusPerimeter;whiteSpace=wrap;html=1;align=center;" vertex="1" parent="1">
          <mxGeometry x="650" y="360" width="120" height="60" as="geometry" />
        </mxCell>
        <mxCell id="zmnEAHHyUiQVyY_5Mi11-15" value="Attribute" style="ellipse;whiteSpace=wrap;html=1;align=center;" vertex="1" parent="1">
          <mxGeometry x="520" y="180" width="100" height="40" as="geometry" />
        </mxCell>
        <mxCell id="zmnEAHHyUiQVyY_5Mi11-16" value="Attribute" style="ellipse;whiteSpace=wrap;html=1;align=center;" vertex="1" parent="1">
          <mxGeometry x="660" y="150" width="100" height="40" as="geometry" />
        </mxCell>
        <mxCell id="zmnEAHHyUiQVyY_5Mi11-18" value="Attribute" style="ellipse;whiteSpace=wrap;html=1;align=center;" vertex="1" parent="1">
          <mxGeometry x="810" y="180" width="100" height="40" as="geometry" />
        </mxCell>
        <mxCell id="zmnEAHHyUiQVyY_5Mi11-19" value="Attribute" style="ellipse;whiteSpace=wrap;html=1;align=center;" vertex="1" parent="1">
          <mxGeometry x="810" y="260" width="100" height="40" as="geometry" />
        </mxCell>
        <mxCell id="zmnEAHHyUiQVyY_5Mi11-20" value="Attribute" style="ellipse;whiteSpace=wrap;html=1;align=center;" vertex="1" parent="1">
          <mxGeometry x="520" y="260" width="100" height="40" as="geometry" />
        </mxCell>
        <mxCell id="zmnEAHHyUiQVyY_5Mi11-26" style="edgeStyle=orthogonalEdgeStyle;rounded=0;orthogonalLoop=1;jettySize=auto;html=1;entryX=1;entryY=0.5;entryDx=0;entryDy=0;" edge="1" parent="1" source="zmnEAHHyUiQVyY_5Mi11-22" target="zmnEAHHyUiQVyY_5Mi11-12">
          <mxGeometry relative="1" as="geometry" />
        </mxCell>
        <mxCell id="zmnEAHHyUiQVyY_5Mi11-22" value="valor" style="ellipse;whiteSpace=wrap;html=1;align=center;" vertex="1" parent="1">
          <mxGeometry x="810" y="370" width="100" height="40" as="geometry" />
        </mxCell>
        <mxCell id="zmnEAHHyUiQVyY_5Mi11-25" style="edgeStyle=orthogonalEdgeStyle;rounded=0;orthogonalLoop=1;jettySize=auto;html=1;entryX=0;entryY=0.5;entryDx=0;entryDy=0;" edge="1" parent="1" source="zmnEAHHyUiQVyY_5Mi11-23" target="zmnEAHHyUiQVyY_5Mi11-12">
          <mxGeometry relative="1" as="geometry" />
        </mxCell>
        <mxCell id="zmnEAHHyUiQVyY_5Mi11-23" value="tempo" style="ellipse;whiteSpace=wrap;html=1;align=center;" vertex="1" parent="1">
          <mxGeometry x="500" y="370" width="100" height="40" as="geometry" />
        </mxCell>
        <mxCell id="zmnEAHHyUiQVyY_5Mi11-28" value="valor" style="ellipse;whiteSpace=wrap;html=1;align=center;" vertex="1" parent="1">
          <mxGeometry x="800" y="530" width="100" height="40" as="geometry" />
        </mxCell>
        <mxCell id="zmnEAHHyUiQVyY_5Mi11-29" value="valor" style="ellipse;whiteSpace=wrap;html=1;align=center;" vertex="1" parent="1">
          <mxGeometry x="700" y="584.5" width="100" height="40" as="geometry" />
        </mxCell>
      </root>
    </mxGraphModel>
  </diagram>
</mxfile>
